<?xml version="1.0" encoding="utf-8" standalone="no"?>
<!DOCTYPE svg PUBLIC "-//W3C//DTD SVG 1.1//EN"
  "http://www.w3.org/Graphics/SVG/1.1/DTD/svg11.dtd">
<svg xmlns:xlink="http://www.w3.org/1999/xlink" width="460.8pt" height="345.6pt" viewBox="0 0 460.8 345.6" xmlns="http://www.w3.org/2000/svg" version="1.1">
 <metadata>
  <rdf:RDF xmlns:dc="http://purl.org/dc/elements/1.1/" xmlns:cc="http://creativecommons.org/ns#" xmlns:rdf="http://www.w3.org/1999/02/22-rdf-syntax-ns#">
   <cc:Work>
    <dc:type rdf:resource="http://purl.org/dc/dcmitype/StillImage"/>
    <dc:date>2023-03-07T22:35:53.197723</dc:date>
    <dc:format>image/svg+xml</dc:format>
    <dc:creator>
     <cc:Agent>
      <dc:title>Matplotlib v3.7.0, https://matplotlib.org/</dc:title>
     </cc:Agent>
    </dc:creator>
   </cc:Work>
  </rdf:RDF>
 </metadata>
 <defs>
  <style type="text/css">*{stroke-linejoin: round; stroke-linecap: butt}</style>
 </defs>
 <g id="figure_1">
  <g id="patch_1">
   <path d="M 0 345.6 
L 460.8 345.6 
L 460.8 0 
L 0 0 
z
"/>
  </g>
  <g id="axes_1">
   <g id="patch_2">
    <path d="M 10.8 280.738983 
L 48.020339 280.738983 
L 48.020339 243.518644 
L 10.8 243.518644 
z
" clip-path="url(#p38172d602e)" style="fill: #66c2a5; stroke: #66c2a5; stroke-linejoin: miter"/>
   </g>
   <g id="patch_3">
    <path d="M 10.8 236.074576 
L 48.020339 236.074576 
L 48.020339 198.854237 
L 10.8 198.854237 
z
" clip-path="url(#p38172d602e)" style="fill: #66c2a5; stroke: #66c2a5; stroke-linejoin: miter"/>
   </g>
   <g id="patch_4">
    <path d="M 10.8 191.410169 
L 48.020339 191.410169 
L 48.020339 154.189831 
L 10.8 154.189831 
z
" clip-path="url(#p38172d602e)" style="fill: #66c2a5; stroke: #66c2a5; stroke-linejoin: miter"/>
   </g>
   <g id="patch_5">
    <path d="M 10.8 146.745763 
L 48.020339 146.745763 
L 48.020339 109.525424 
L 10.8 109.525424 
z
" clip-path="url(#p38172d602e)" style="fill: #66c2a5; stroke: #66c2a5; stroke-linejoin: miter"/>
   </g>
   <g id="patch_6">
    <path d="M 10.8 102.081356 
L 48.020339 102.081356 
L 48.020339 64.861017 
L 10.8 64.861017 
z
" clip-path="url(#p38172d602e)" style="fill: #66c2a5; stroke: #66c2a5; stroke-linejoin: miter"/>
   </g>
   <g id="patch_7">
    <path d="M 55.464407 280.738983 
L 92.684746 280.738983 
L 92.684746 243.518644 
L 55.464407 243.518644 
z
" clip-path="url(#p38172d602e)" style="fill: #66c2a5; stroke: #66c2a5; stroke-linejoin: miter"/>
   </g>
   <g id="patch_8">
    <path d="M 55.464407 236.074576 
L 92.684746 236.074576 
L 92.684746 198.854237 
L 55.464407 198.854237 
z
" clip-path="url(#p38172d602e)" style="fill: #66c2a5; stroke: #66c2a5; stroke-linejoin: miter"/>
   </g>
   <g id="patch_9">
    <path d="M 55.464407 191.410169 
L 92.684746 191.410169 
L 92.684746 154.189831 
L 55.464407 154.189831 
z
" clip-path="url(#p38172d602e)" style="fill: #66c2a5; stroke: #66c2a5; stroke-linejoin: miter"/>
   </g>
   <g id="patch_10">
    <path d="M 55.464407 146.745763 
L 92.684746 146.745763 
L 92.684746 109.525424 
L 55.464407 109.525424 
z
" clip-path="url(#p38172d602e)" style="fill: #66c2a5; stroke: #66c2a5; stroke-linejoin: miter"/>
   </g>
   <g id="patch_11">
    <path d="M 55.464407 102.081356 
L 92.684746 102.081356 
L 92.684746 64.861017 
L 55.464407 64.861017 
z
" clip-path="url(#p38172d602e)" style="fill: #66c2a5; stroke: #66c2a5; stroke-linejoin: miter"/>
   </g>
   <g id="patch_12">
    <path d="M 100.128814 280.738983 
L 137.349153 280.738983 
L 137.349153 243.518644 
L 100.128814 243.518644 
z
" clip-path="url(#p38172d602e)" style="fill: #66c2a5; stroke: #66c2a5; stroke-linejoin: miter"/>
   </g>
   <g id="patch_13">
    <path d="M 100.128814 236.074576 
L 137.349153 236.074576 
L 137.349153 198.854237 
L 100.128814 198.854237 
z
" clip-path="url(#p38172d602e)" style="fill: #66c2a5; stroke: #66c2a5; stroke-linejoin: miter"/>
   </g>
   <g id="patch_14">
    <path d="M 100.128814 191.410169 
L 137.349153 191.410169 
L 137.349153 154.189831 
L 100.128814 154.189831 
z
" clip-path="url(#p38172d602e)" style="fill: #66c2a5; stroke: #66c2a5; stroke-linejoin: miter"/>
   </g>
   <g id="patch_15">
    <path d="M 100.128814 146.745763 
L 137.349153 146.745763 
L 137.349153 109.525424 
L 100.128814 109.525424 
z
" clip-path="url(#p38172d602e)" style="fill: #66c2a5; stroke: #66c2a5; stroke-linejoin: miter"/>
   </g>
   <g id="patch_16">
    <path d="M 100.128814 102.081356 
L 137.349153 102.081356 
L 137.349153 64.861017 
L 100.128814 64.861017 
z
" clip-path="url(#p38172d602e)" style="fill: #66c2a5; stroke: #66c2a5; stroke-linejoin: miter"/>
   </g>
   <g id="patch_17">
    <path d="M 144.79322 280.738983 
L 182.013559 280.738983 
L 182.013559 243.518644 
L 144.79322 243.518644 
z
" clip-path="url(#p38172d602e)" style="fill: #66c2a5; stroke: #66c2a5; stroke-linejoin: miter"/>
   </g>
   <g id="patch_18">
    <path d="M 144.79322 236.074576 
L 182.013559 236.074576 
L 182.013559 198.854237 
L 144.79322 198.854237 
z
" clip-path="url(#p38172d602e)" style="fill: #66c2a5; stroke: #66c2a5; stroke-linejoin: miter"/>
   </g>
   <g id="patch_19">
    <path d="M 144.79322 191.410169 
L 182.013559 191.410169 
L 182.013559 154.189831 
L 144.79322 154.189831 
z
" clip-path="url(#p38172d602e)" style="fill: #66c2a5; stroke: #66c2a5; stroke-linejoin: miter"/>
   </g>
   <g id="patch_20">
    <path d="M 144.79322 146.745763 
L 182.013559 146.745763 
L 182.013559 109.525424 
L 144.79322 109.525424 
z
" clip-path="url(#p38172d602e)" style="fill: #66c2a5; stroke: #66c2a5; stroke-linejoin: miter"/>
   </g>
   <g id="patch_21">
    <path d="M 144.79322 102.081356 
L 182.013559 102.081356 
L 182.013559 64.861017 
L 144.79322 64.861017 
z
" clip-path="url(#p38172d602e)" style="fill: #66c2a5; stroke: #66c2a5; stroke-linejoin: miter"/>
   </g>
   <g id="patch_22">
    <path d="M 189.457627 280.738983 
L 226.677966 280.738983 
L 226.677966 243.518644 
L 189.457627 243.518644 
z
" clip-path="url(#p38172d602e)" style="fill: #66c2a5; stroke: #66c2a5; stroke-linejoin: miter"/>
   </g>
   <g id="patch_23">
    <path d="M 189.457627 236.074576 
L 226.677966 236.074576 
L 226.677966 198.854237 
L 189.457627 198.854237 
z
" clip-path="url(#p38172d602e)" style="fill: #66c2a5; stroke: #66c2a5; stroke-linejoin: miter"/>
   </g>
   <g id="patch_24">
    <path d="M 189.457627 191.410169 
L 226.677966 191.410169 
L 226.677966 154.189831 
L 189.457627 154.189831 
z
" clip-path="url(#p38172d602e)" style="fill: #66c2a5; stroke: #66c2a5; stroke-linejoin: miter"/>
   </g>
   <g id="patch_25">
    <path d="M 189.457627 146.745763 
L 226.677966 146.745763 
L 226.677966 109.525424 
L 189.457627 109.525424 
z
" clip-path="url(#p38172d602e)" style="fill: #66c2a5; stroke: #66c2a5; stroke-linejoin: miter"/>
   </g>
   <g id="patch_26">
    <path d="M 189.457627 102.081356 
L 226.677966 102.081356 
L 226.677966 64.861017 
L 189.457627 64.861017 
z
" clip-path="url(#p38172d602e)" style="fill: #66c2a5; stroke: #66c2a5; stroke-linejoin: miter"/>
   </g>
   <g id="patch_27">
    <path d="M 234.122034 280.738983 
L 271.342373 280.738983 
L 271.342373 243.518644 
L 234.122034 243.518644 
z
" clip-path="url(#p38172d602e)" style="fill: #66c2a5; stroke: #66c2a5; stroke-linejoin: miter"/>
   </g>
   <g id="patch_28">
    <path d="M 234.122034 236.074576 
L 271.342373 236.074576 
L 271.342373 198.854237 
L 234.122034 198.854237 
z
" clip-path="url(#p38172d602e)" style="fill: #66c2a5; stroke: #66c2a5; stroke-linejoin: miter"/>
   </g>
   <g id="patch_29">
    <path d="M 234.122034 191.410169 
L 271.342373 191.410169 
L 271.342373 154.189831 
L 234.122034 154.189831 
z
" clip-path="url(#p38172d602e)" style="fill: #66c2a5; stroke: #66c2a5; stroke-linejoin: miter"/>
   </g>
   <g id="patch_30">
    <path d="M 234.122034 146.745763 
L 271.342373 146.745763 
L 271.342373 109.525424 
L 234.122034 109.525424 
z
" clip-path="url(#p38172d602e)" style="fill: #66c2a5; stroke: #66c2a5; stroke-linejoin: miter"/>
   </g>
   <g id="patch_31">
    <path d="M 234.122034 102.081356 
L 271.342373 102.081356 
L 271.342373 64.861017 
L 234.122034 64.861017 
z
" clip-path="url(#p38172d602e)" style="fill: #66c2a5; stroke: #66c2a5; stroke-linejoin: miter"/>
   </g>
   <g id="patch_32">
    <path d="M 278.786441 280.738983 
L 316.00678 280.738983 
L 316.00678 243.518644 
L 278.786441 243.518644 
z
" clip-path="url(#p38172d602e)" style="fill: #66c2a5; stroke: #66c2a5; stroke-linejoin: miter"/>
   </g>
   <g id="patch_33">
    <path d="M 278.786441 236.074576 
L 316.00678 236.074576 
L 316.00678 198.854237 
L 278.786441 198.854237 
z
" clip-path="url(#p38172d602e)" style="fill: #66c2a5; stroke: #66c2a5; stroke-linejoin: miter"/>
   </g>
   <g id="patch_34">
    <path d="M 278.786441 191.410169 
L 316.00678 191.410169 
L 316.00678 154.189831 
L 278.786441 154.189831 
z
" clip-path="url(#p38172d602e)" style="fill: #66c2a5; stroke: #66c2a5; stroke-linejoin: miter"/>
   </g>
   <g id="patch_35">
    <path d="M 278.786441 146.745763 
L 316.00678 146.745763 
L 316.00678 109.525424 
L 278.786441 109.525424 
z
" clip-path="url(#p38172d602e)" style="fill: #66c2a5; stroke: #66c2a5; stroke-linejoin: miter"/>
   </g>
   <g id="patch_36">
    <path d="M 278.786441 102.081356 
L 316.00678 102.081356 
L 316.00678 64.861017 
L 278.786441 64.861017 
z
" clip-path="url(#p38172d602e)" style="fill: #66c2a5; stroke: #66c2a5; stroke-linejoin: miter"/>
   </g>
   <g id="patch_37">
    <path d="M 323.450847 280.738983 
L 360.671186 280.738983 
L 360.671186 243.518644 
L 323.450847 243.518644 
z
" clip-path="url(#p38172d602e)" style="fill: #66c2a5; stroke: #66c2a5; stroke-linejoin: miter"/>
   </g>
   <g id="patch_38">
    <path d="M 323.450847 236.074576 
L 360.671186 236.074576 
L 360.671186 198.854237 
L 323.450847 198.854237 
z
" clip-path="url(#p38172d602e)" style="fill: #66c2a5; stroke: #66c2a5; stroke-linejoin: miter"/>
   </g>
   <g id="patch_39">
    <path d="M 323.450847 191.410169 
L 360.671186 191.410169 
L 360.671186 154.189831 
L 323.450847 154.189831 
z
" clip-path="url(#p38172d602e)" style="fill: #fc8d62; stroke: #fc8d62; stroke-linejoin: miter"/>
   </g>
   <g id="patch_40">
    <path d="M 323.450847 146.745763 
L 360.671186 146.745763 
L 360.671186 109.525424 
L 323.450847 109.525424 
z
" clip-path="url(#p38172d602e)" style="fill: #fc8d62; stroke: #fc8d62; stroke-linejoin: miter"/>
   </g>
   <g id="patch_41">
    <path d="M 323.450847 102.081356 
L 360.671186 102.081356 
L 360.671186 64.861017 
L 323.450847 64.861017 
z
" clip-path="url(#p38172d602e)" style="fill: #fc8d62; stroke: #fc8d62; stroke-linejoin: miter"/>
   </g>
   <g id="patch_42">
    <path d="M 368.115254 280.738983 
L 405.335593 280.738983 
L 405.335593 243.518644 
L 368.115254 243.518644 
z
" clip-path="url(#p38172d602e)" style="fill: #fc8d62; stroke: #fc8d62; stroke-linejoin: miter"/>
   </g>
   <g id="patch_43">
    <path d="M 368.115254 236.074576 
L 405.335593 236.074576 
L 405.335593 198.854237 
L 368.115254 198.854237 
z
" clip-path="url(#p38172d602e)" style="fill: #fc8d62; stroke: #fc8d62; stroke-linejoin: miter"/>
   </g>
   <g id="patch_44">
    <path d="M 368.115254 191.410169 
L 405.335593 191.410169 
L 405.335593 154.189831 
L 368.115254 154.189831 
z
" clip-path="url(#p38172d602e)" style="fill: #fc8d62; stroke: #fc8d62; stroke-linejoin: miter"/>
   </g>
   <g id="patch_45">
    <path d="M 368.115254 146.745763 
L 405.335593 146.745763 
L 405.335593 109.525424 
L 368.115254 109.525424 
z
" clip-path="url(#p38172d602e)" style="fill: #fc8d62; stroke: #fc8d62; stroke-linejoin: miter"/>
   </g>
   <g id="patch_46">
    <path d="M 368.115254 102.081356 
L 405.335593 102.081356 
L 405.335593 64.861017 
L 368.115254 64.861017 
z
" clip-path="url(#p38172d602e)" style="fill: #fc8d62; stroke: #fc8d62; stroke-linejoin: miter"/>
   </g>
   <g id="patch_47">
    <path d="M 412.779661 280.738983 
L 450 280.738983 
L 450 243.518644 
L 412.779661 243.518644 
z
" clip-path="url(#p38172d602e)" style="fill: #fc8d62; stroke: #fc8d62; stroke-linejoin: miter"/>
   </g>
   <g id="patch_48">
    <path d="M 412.779661 236.074576 
L 450 236.074576 
L 450 198.854237 
L 412.779661 198.854237 
z
" clip-path="url(#p38172d602e)" style="fill: #8da0cb; stroke: #8da0cb; stroke-linejoin: miter"/>
   </g>
   <g id="patch_49">
    <path d="M 412.779661 191.410169 
L 450 191.410169 
L 450 154.189831 
L 412.779661 154.189831 
z
" clip-path="url(#p38172d602e)" style="fill: #8da0cb; stroke: #8da0cb; stroke-linejoin: miter"/>
   </g>
   <g id="patch_50">
    <path d="M 412.779661 146.745763 
L 450 146.745763 
L 450 109.525424 
L 412.779661 109.525424 
z
" clip-path="url(#p38172d602e)" style="fill: #8da0cb; stroke: #8da0cb; stroke-linejoin: miter"/>
   </g>
   <g id="patch_51">
    <path d="M 412.779661 102.081356 
L 450 102.081356 
L 450 64.861017 
L 412.779661 64.861017 
z
" clip-path="url(#p38172d602e)" style="fill: #8da0cb; stroke: #8da0cb; stroke-linejoin: miter"/>
   </g>
   <g id="text_1">
    <!-- Role of Involved Persons -->
    <g style="fill: #ffffff" transform="translate(157.169062 58.861017) scale(0.12 -0.12)">
     <defs>
      <path id="DejaVuSans-52" d="M 2841 2188 
Q 3044 2119 3236 1894 
Q 3428 1669 3622 1275 
L 4263 0 
L 3584 0 
L 2988 1197 
Q 2756 1666 2539 1819 
Q 2322 1972 1947 1972 
L 1259 1972 
L 1259 0 
L 628 0 
L 628 4666 
L 2053 4666 
Q 2853 4666 3247 4331 
Q 3641 3997 3641 3322 
Q 3641 2881 3436 2590 
Q 3231 2300 2841 2188 
z
M 1259 4147 
L 1259 2491 
L 2053 2491 
Q 2509 2491 2742 2702 
Q 2975 2913 2975 3322 
Q 2975 3731 2742 3939 
Q 2509 4147 2053 4147 
L 1259 4147 
z
" transform="scale(0.015625)"/>
      <path id="DejaVuSans-6f" d="M 1959 3097 
Q 1497 3097 1228 2736 
Q 959 2375 959 1747 
Q 959 1119 1226 758 
Q 1494 397 1959 397 
Q 2419 397 2687 759 
Q 2956 1122 2956 1747 
Q 2956 2369 2687 2733 
Q 2419 3097 1959 3097 
z
M 1959 3584 
Q 2709 3584 3137 3096 
Q 3566 2609 3566 1747 
Q 3566 888 3137 398 
Q 2709 -91 1959 -91 
Q 1206 -91 779 398 
Q 353 888 353 1747 
Q 353 2609 779 3096 
Q 1206 3584 1959 3584 
z
" transform="scale(0.015625)"/>
      <path id="DejaVuSans-6c" d="M 603 4863 
L 1178 4863 
L 1178 0 
L 603 0 
L 603 4863 
z
" transform="scale(0.015625)"/>
      <path id="DejaVuSans-65" d="M 3597 1894 
L 3597 1613 
L 953 1613 
Q 991 1019 1311 708 
Q 1631 397 2203 397 
Q 2534 397 2845 478 
Q 3156 559 3463 722 
L 3463 178 
Q 3153 47 2828 -22 
Q 2503 -91 2169 -91 
Q 1331 -91 842 396 
Q 353 884 353 1716 
Q 353 2575 817 3079 
Q 1281 3584 2069 3584 
Q 2775 3584 3186 3129 
Q 3597 2675 3597 1894 
z
M 3022 2063 
Q 3016 2534 2758 2815 
Q 2500 3097 2075 3097 
Q 1594 3097 1305 2825 
Q 1016 2553 972 2059 
L 3022 2063 
z
" transform="scale(0.015625)"/>
      <path id="DejaVuSans-20" transform="scale(0.015625)"/>
      <path id="DejaVuSans-66" d="M 2375 4863 
L 2375 4384 
L 1825 4384 
Q 1516 4384 1395 4259 
Q 1275 4134 1275 3809 
L 1275 3500 
L 2222 3500 
L 2222 3053 
L 1275 3053 
L 1275 0 
L 697 0 
L 697 3053 
L 147 3053 
L 147 3500 
L 697 3500 
L 697 3744 
Q 697 4328 969 4595 
Q 1241 4863 1831 4863 
L 2375 4863 
z
" transform="scale(0.015625)"/>
      <path id="DejaVuSans-49" d="M 628 4666 
L 1259 4666 
L 1259 0 
L 628 0 
L 628 4666 
z
" transform="scale(0.015625)"/>
      <path id="DejaVuSans-6e" d="M 3513 2113 
L 3513 0 
L 2938 0 
L 2938 2094 
Q 2938 2591 2744 2837 
Q 2550 3084 2163 3084 
Q 1697 3084 1428 2787 
Q 1159 2491 1159 1978 
L 1159 0 
L 581 0 
L 581 3500 
L 1159 3500 
L 1159 2956 
Q 1366 3272 1645 3428 
Q 1925 3584 2291 3584 
Q 2894 3584 3203 3211 
Q 3513 2838 3513 2113 
z
" transform="scale(0.015625)"/>
      <path id="DejaVuSans-76" d="M 191 3500 
L 800 3500 
L 1894 563 
L 2988 3500 
L 3597 3500 
L 2284 0 
L 1503 0 
L 191 3500 
z
" transform="scale(0.015625)"/>
      <path id="DejaVuSans-64" d="M 2906 2969 
L 2906 4863 
L 3481 4863 
L 3481 0 
L 2906 0 
L 2906 525 
Q 2725 213 2448 61 
Q 2172 -91 1784 -91 
Q 1150 -91 751 415 
Q 353 922 353 1747 
Q 353 2572 751 3078 
Q 1150 3584 1784 3584 
Q 2172 3584 2448 3432 
Q 2725 3281 2906 2969 
z
M 947 1747 
Q 947 1113 1208 752 
Q 1469 391 1925 391 
Q 2381 391 2643 752 
Q 2906 1113 2906 1747 
Q 2906 2381 2643 2742 
Q 2381 3103 1925 3103 
Q 1469 3103 1208 2742 
Q 947 2381 947 1747 
z
" transform="scale(0.015625)"/>
      <path id="DejaVuSans-50" d="M 1259 4147 
L 1259 2394 
L 2053 2394 
Q 2494 2394 2734 2622 
Q 2975 2850 2975 3272 
Q 2975 3691 2734 3919 
Q 2494 4147 2053 4147 
L 1259 4147 
z
M 628 4666 
L 2053 4666 
Q 2838 4666 3239 4311 
Q 3641 3956 3641 3272 
Q 3641 2581 3239 2228 
Q 2838 1875 2053 1875 
L 1259 1875 
L 1259 0 
L 628 0 
L 628 4666 
z
" transform="scale(0.015625)"/>
      <path id="DejaVuSans-72" d="M 2631 2963 
Q 2534 3019 2420 3045 
Q 2306 3072 2169 3072 
Q 1681 3072 1420 2755 
Q 1159 2438 1159 1844 
L 1159 0 
L 581 0 
L 581 3500 
L 1159 3500 
L 1159 2956 
Q 1341 3275 1631 3429 
Q 1922 3584 2338 3584 
Q 2397 3584 2469 3576 
Q 2541 3569 2628 3553 
L 2631 2963 
z
" transform="scale(0.015625)"/>
      <path id="DejaVuSans-73" d="M 2834 3397 
L 2834 2853 
Q 2591 2978 2328 3040 
Q 2066 3103 1784 3103 
Q 1356 3103 1142 2972 
Q 928 2841 928 2578 
Q 928 2378 1081 2264 
Q 1234 2150 1697 2047 
L 1894 2003 
Q 2506 1872 2764 1633 
Q 3022 1394 3022 966 
Q 3022 478 2636 193 
Q 2250 -91 1575 -91 
Q 1294 -91 989 -36 
Q 684 19 347 128 
L 347 722 
Q 666 556 975 473 
Q 1284 391 1588 391 
Q 1994 391 2212 530 
Q 2431 669 2431 922 
Q 2431 1156 2273 1281 
Q 2116 1406 1581 1522 
L 1381 1569 
Q 847 1681 609 1914 
Q 372 2147 372 2553 
Q 372 3047 722 3315 
Q 1072 3584 1716 3584 
Q 2034 3584 2315 3537 
Q 2597 3491 2834 3397 
z
" transform="scale(0.015625)"/>
     </defs>
     <use xlink:href="#DejaVuSans-52"/>
     <use xlink:href="#DejaVuSans-6f" x="64.982422"/>
     <use xlink:href="#DejaVuSans-6c" x="126.164062"/>
     <use xlink:href="#DejaVuSans-65" x="153.947266"/>
     <use xlink:href="#DejaVuSans-20" x="215.470703"/>
     <use xlink:href="#DejaVuSans-6f" x="247.257812"/>
     <use xlink:href="#DejaVuSans-66" x="308.439453"/>
     <use xlink:href="#DejaVuSans-20" x="343.644531"/>
     <use xlink:href="#DejaVuSans-49" x="375.431641"/>
     <use xlink:href="#DejaVuSans-6e" x="404.923828"/>
     <use xlink:href="#DejaVuSans-76" x="468.302734"/>
     <use xlink:href="#DejaVuSans-6f" x="527.482422"/>
     <use xlink:href="#DejaVuSans-6c" x="588.664062"/>
     <use xlink:href="#DejaVuSans-76" x="616.447266"/>
     <use xlink:href="#DejaVuSans-65" x="675.626953"/>
     <use xlink:href="#DejaVuSans-64" x="737.150391"/>
     <use xlink:href="#DejaVuSans-20" x="800.626953"/>
     <use xlink:href="#DejaVuSans-50" x="832.414062"/>
     <use xlink:href="#DejaVuSans-65" x="889.091797"/>
     <use xlink:href="#DejaVuSans-72" x="950.615234"/>
     <use xlink:href="#DejaVuSans-73" x="991.728516"/>
     <use xlink:href="#DejaVuSans-6f" x="1043.828125"/>
     <use xlink:href="#DejaVuSans-6e" x="1105.009766"/>
     <use xlink:href="#DejaVuSans-73" x="1168.388672"/>
    </g>
   </g>
   <g id="legend_1">
    <g id="patch_52">
     <path d="M 88.072 308.120678 
L 350.97825 308.120678 
Q 352.97825 308.120678 352.97825 306.120678 
L 352.97825 292.442553 
Q 352.97825 290.442553 350.97825 290.442553 
L 88.072 290.442553 
Q 86.072 290.442553 86.072 292.442553 
L 86.072 306.120678 
Q 86.072 308.120678 88.072 308.120678 
z
" style="opacity: 0.8; stroke: #cccccc; stroke-linejoin: miter"/>
    </g>
    <g id="patch_53">
     <path d="M 90.072 302.04099 
L 110.072 302.04099 
L 110.072 295.04099 
L 90.072 295.04099 
z
" style="fill: #66c2a5; stroke: #66c2a5; stroke-linejoin: miter"/>
    </g>
    <g id="text_2">
     <!-- driver -->
     <g style="fill: #ffffff" transform="translate(118.072 302.04099) scale(0.1 -0.1)">
      <defs>
       <path id="DejaVuSans-69" d="M 603 3500 
L 1178 3500 
L 1178 0 
L 603 0 
L 603 3500 
z
M 603 4863 
L 1178 4863 
L 1178 4134 
L 603 4134 
L 603 4863 
z
" transform="scale(0.015625)"/>
      </defs>
      <use xlink:href="#DejaVuSans-64"/>
      <use xlink:href="#DejaVuSans-72" x="63.476562"/>
      <use xlink:href="#DejaVuSans-69" x="104.589844"/>
      <use xlink:href="#DejaVuSans-76" x="132.373047"/>
      <use xlink:href="#DejaVuSans-65" x="191.552734"/>
      <use xlink:href="#DejaVuSans-72" x="253.076172"/>
     </g>
    </g>
    <g id="patch_54">
     <path d="M 167.492312 302.04099 
L 187.492312 302.04099 
L 187.492312 295.04099 
L 167.492312 295.04099 
z
" style="fill: #fc8d62; stroke: #fc8d62; stroke-linejoin: miter"/>
    </g>
    <g id="text_3">
     <!-- passenger -->
     <g style="fill: #ffffff" transform="translate(195.492312 302.04099) scale(0.1 -0.1)">
      <defs>
       <path id="DejaVuSans-70" d="M 1159 525 
L 1159 -1331 
L 581 -1331 
L 581 3500 
L 1159 3500 
L 1159 2969 
Q 1341 3281 1617 3432 
Q 1894 3584 2278 3584 
Q 2916 3584 3314 3078 
Q 3713 2572 3713 1747 
Q 3713 922 3314 415 
Q 2916 -91 2278 -91 
Q 1894 -91 1617 61 
Q 1341 213 1159 525 
z
M 3116 1747 
Q 3116 2381 2855 2742 
Q 2594 3103 2138 3103 
Q 1681 3103 1420 2742 
Q 1159 2381 1159 1747 
Q 1159 1113 1420 752 
Q 1681 391 2138 391 
Q 2594 391 2855 752 
Q 3116 1113 3116 1747 
z
" transform="scale(0.015625)"/>
       <path id="DejaVuSans-61" d="M 2194 1759 
Q 1497 1759 1228 1600 
Q 959 1441 959 1056 
Q 959 750 1161 570 
Q 1363 391 1709 391 
Q 2188 391 2477 730 
Q 2766 1069 2766 1631 
L 2766 1759 
L 2194 1759 
z
M 3341 1997 
L 3341 0 
L 2766 0 
L 2766 531 
Q 2569 213 2275 61 
Q 1981 -91 1556 -91 
Q 1019 -91 701 211 
Q 384 513 384 1019 
Q 384 1609 779 1909 
Q 1175 2209 1959 2209 
L 2766 2209 
L 2766 2266 
Q 2766 2663 2505 2880 
Q 2244 3097 1772 3097 
Q 1472 3097 1187 3025 
Q 903 2953 641 2809 
L 641 3341 
Q 956 3463 1253 3523 
Q 1550 3584 1831 3584 
Q 2591 3584 2966 3190 
Q 3341 2797 3341 1997 
z
" transform="scale(0.015625)"/>
       <path id="DejaVuSans-67" d="M 2906 1791 
Q 2906 2416 2648 2759 
Q 2391 3103 1925 3103 
Q 1463 3103 1205 2759 
Q 947 2416 947 1791 
Q 947 1169 1205 825 
Q 1463 481 1925 481 
Q 2391 481 2648 825 
Q 2906 1169 2906 1791 
z
M 3481 434 
Q 3481 -459 3084 -895 
Q 2688 -1331 1869 -1331 
Q 1566 -1331 1297 -1286 
Q 1028 -1241 775 -1147 
L 775 -588 
Q 1028 -725 1275 -790 
Q 1522 -856 1778 -856 
Q 2344 -856 2625 -561 
Q 2906 -266 2906 331 
L 2906 616 
Q 2728 306 2450 153 
Q 2172 0 1784 0 
Q 1141 0 747 490 
Q 353 981 353 1791 
Q 353 2603 747 3093 
Q 1141 3584 1784 3584 
Q 2172 3584 2450 3431 
Q 2728 3278 2906 2969 
L 2906 3500 
L 3481 3500 
L 3481 434 
z
" transform="scale(0.015625)"/>
      </defs>
      <use xlink:href="#DejaVuSans-70"/>
      <use xlink:href="#DejaVuSans-61" x="63.476562"/>
      <use xlink:href="#DejaVuSans-73" x="124.755859"/>
      <use xlink:href="#DejaVuSans-73" x="176.855469"/>
      <use xlink:href="#DejaVuSans-65" x="228.955078"/>
      <use xlink:href="#DejaVuSans-6e" x="290.478516"/>
      <use xlink:href="#DejaVuSans-67" x="353.857422"/>
      <use xlink:href="#DejaVuSans-65" x="417.333984"/>
      <use xlink:href="#DejaVuSans-72" x="478.857422"/>
     </g>
    </g>
    <g id="patch_55">
     <path d="M 267.49075 302.04099 
L 287.49075 302.04099 
L 287.49075 295.04099 
L 267.49075 295.04099 
z
" style="fill: #8da0cb; stroke: #8da0cb; stroke-linejoin: miter"/>
    </g>
    <g id="text_4">
     <!-- pedestrian -->
     <g style="fill: #ffffff" transform="translate(295.49075 302.04099) scale(0.1 -0.1)">
      <defs>
       <path id="DejaVuSans-74" d="M 1172 4494 
L 1172 3500 
L 2356 3500 
L 2356 3053 
L 1172 3053 
L 1172 1153 
Q 1172 725 1289 603 
Q 1406 481 1766 481 
L 2356 481 
L 2356 0 
L 1766 0 
Q 1100 0 847 248 
Q 594 497 594 1153 
L 594 3053 
L 172 3053 
L 172 3500 
L 594 3500 
L 594 4494 
L 1172 4494 
z
" transform="scale(0.015625)"/>
      </defs>
      <use xlink:href="#DejaVuSans-70"/>
      <use xlink:href="#DejaVuSans-65" x="63.476562"/>
      <use xlink:href="#DejaVuSans-64" x="125"/>
      <use xlink:href="#DejaVuSans-65" x="188.476562"/>
      <use xlink:href="#DejaVuSans-73" x="250"/>
      <use xlink:href="#DejaVuSans-74" x="302.099609"/>
      <use xlink:href="#DejaVuSans-72" x="341.308594"/>
      <use xlink:href="#DejaVuSans-69" x="382.421875"/>
      <use xlink:href="#DejaVuSans-61" x="410.205078"/>
      <use xlink:href="#DejaVuSans-6e" x="471.484375"/>
     </g>
    </g>
   </g>
  </g>
 </g>
 <defs>
  <clipPath id="p38172d602e">
   <rect x="10.8" y="64.861017" width="439.2" height="215.877966"/>
  </clipPath>
 </defs>
</svg>
